<?xml version="1.0" encoding="utf-8"?>
<svg version="1.1" id="Layer_1" xmlns="http://www.w3.org/2000/svg" xmlns:xlink="http://www.w3.org/1999/xlink" x="0px" y="0px"
	 viewBox="0 0 423.321 220.928" style="enable-background:new 0 0 423.321 220.928;" xml:space="preserve">
<g>
	<g>
		<g>
			<g>
				<rect x="402.522" y="189.754" style="fill:#616365;" width="4.878" height="26.156"/>
				<path style="fill:#333632;" d="M407.749,216.259h-5.576v-26.854h5.576V216.259z M402.871,215.561h4.181v-25.459h-4.181V215.561z
					"/>
			</g>
			<rect x="403.742" y="189.754" style="fill:#616365;" width="2.439" height="26.156"/>
			<g>
				<path style="fill:#4A4C4E;" d="M408.309,217.263h-6.696c-0.848,0-1.542-0.694-1.542-1.542l0,0c0-0.848,0.694-1.542,1.542-1.542
					h6.696c0.848,0,1.542,0.694,1.542,1.542l0,0C409.852,216.569,409.158,217.263,408.309,217.263z"/>
				<path style="fill:#333632;" d="M408.309,217.612h-6.695c-1.043,0-1.891-0.848-1.891-1.891s0.848-1.891,1.891-1.891h6.695
					c1.042,0,1.891,0.848,1.891,1.891S409.352,217.612,408.309,217.612z M401.614,214.527c-0.659,0-1.194,0.536-1.194,1.194
					s0.535,1.194,1.194,1.194h6.695c0.658,0,1.194-0.536,1.194-1.194s-0.535-1.194-1.194-1.194H401.614z"/>
			</g>
		</g>
		<g>
			<path style="fill:#4A4C4E;" d="M404.323,199.372h-17.472c-4.32,0-7.854-3.534-7.854-7.854l0,0c0-4.32,3.534-7.854,7.854-7.854
				h17.472c4.32,0,7.854,3.534,7.854,7.854l0,0C412.177,195.838,408.643,199.372,404.323,199.372z"/>
			<path style="fill:#333632;" d="M404.323,199.721h-17.472c-4.523,0-8.203-3.68-8.203-8.203c0-4.523,3.68-8.203,8.203-8.203h17.472
				c4.523,0,8.203,3.68,8.203,8.203C412.526,196.041,408.846,199.721,404.323,199.721z M386.851,184.013
				c-4.139,0-7.506,3.367-7.506,7.505c0,4.139,3.367,7.506,7.506,7.506h17.472c4.139,0,7.506-3.367,7.506-7.506
				c0-4.139-3.367-7.505-7.506-7.505H386.851z"/>
		</g>
		<g>
			<path style="fill:#616365;" d="M410.845,193.6h-77.274c-3.178,0-5.778-2.6-5.778-5.778l0,0c0-3.178,2.6-5.778,5.778-5.778h77.274
				c3.178,0,5.778,2.6,5.778,5.778l0,0C416.622,191,414.022,193.6,410.845,193.6z"/>
			<path style="fill:#333632;" d="M410.845,193.949h-77.274c-3.379,0-6.127-2.748-6.127-6.126s2.748-6.126,6.127-6.126h77.274
				c3.378,0,6.126,2.748,6.126,6.126S414.223,193.949,410.845,193.949z M333.571,182.393c-2.994,0-5.43,2.436-5.43,5.429
				c0,2.994,2.436,5.429,5.43,5.429h77.274c2.993,0,5.429-2.436,5.429-5.429c0-2.993-2.436-5.429-5.429-5.429H333.571z"/>
		</g>
		<path style="fill:#1C1E1F;" d="M327.854,188.616c0.391,2.805,2.808,4.984,5.716,4.984h77.274c2.908,0,5.326-2.179,5.716-4.984
			H327.854z"/>
		<g>
			<path style="fill:#4A4C4E;" d="M409.444,190.593c0,3.827-3.102,6.929-6.929,6.929c-3.827,0-6.929-3.102-6.929-6.929
				s3.102-6.929,6.929-6.929C406.342,183.664,409.444,186.766,409.444,190.593z"/>
			<path style="fill:#333632;" d="M402.516,197.87c-4.013,0-7.277-3.264-7.277-7.277c0-4.013,3.265-7.277,7.277-7.277
				c4.013,0,7.277,3.265,7.277,7.277C409.793,194.605,406.529,197.87,402.516,197.87z M402.516,184.013
				c-3.629,0-6.58,2.952-6.58,6.58c0,3.628,2.952,6.58,6.58,6.58c3.628,0,6.58-2.952,6.58-6.58
				C409.095,186.965,406.144,184.013,402.516,184.013z"/>
		</g>
		<g>
			<path style="fill:#1C1E1F;" d="M406.443,190.593c0,2.169-1.758,3.927-3.927,3.927c-2.169,0-3.927-1.758-3.927-3.927
				c0-2.169,1.758-3.927,3.927-3.927C404.685,186.666,406.443,188.424,406.443,190.593z"/>
			<path style="fill:#333632;" d="M402.516,194.869c-2.358,0-4.276-1.918-4.276-4.276c0-2.358,1.918-4.276,4.276-4.276
				c2.357,0,4.275,1.918,4.275,4.276C406.791,192.951,404.873,194.869,402.516,194.869z M402.516,187.014
				c-1.973,0-3.579,1.605-3.579,3.578s1.605,3.579,3.579,3.579s3.578-1.605,3.578-3.579S404.489,187.014,402.516,187.014z"/>
		</g>
		<polygon style="fill:#545657;" points="347.997,183.664 397.273,183.664 394.729,185.8 347.997,185.8 		"/>
	</g>
	<g>
		<rect x="64.986" y="173.354" style="fill:#808285;" width="271.835" height="17.381"/>
		<path style="fill:#333632;" d="M337.169,191.084H64.637v-18.078h272.532V191.084z M65.334,190.387h271.137v-16.684H65.334V190.387
			z"/>
	</g>
	<g>
		<rect x="64.986" y="173.354" style="fill:#808285;" width="271.835" height="13.217"/>
		<path style="fill:#333632;" d="M337.169,186.92H64.637v-13.914h272.532V186.92z M65.334,186.223h271.137v-12.519H65.334V186.223z"
			/>
	</g>
	<g>
		<path style="fill:#FFFFFF;" d="M70.609,184.816h274.109l22.209-100.635c0,0,15.963-76.344-29.149-80.508
			c0,0-166.889-1.388-271.18,23.597c0,0-33.468,5.552-41.118,28.455S6.038,114.234,6.728,122.457
			c0.69,8.223,33.156,58.07,33.156,58.07s3.701,4.365,9.254,4.288H70.609z"/>
		<path style="fill:#A5A79E;" d="M48.985,185.165c-5.562,0-9.214-4.23-9.368-4.412c-1.354-2.073-32.547-50.05-33.236-58.266
			C5.663,113.946,18.338,76,25.148,55.615c7.629-22.838,41.056-28.633,41.392-28.689C169.656,2.222,336.107,3.31,337.78,3.324
			c9.48,0.874,16.984,4.988,22.335,12.228c16.58,22.441,7.25,68.239,7.154,68.7l-22.27,100.912H49.137
			C49.087,185.165,49.036,185.165,48.985,185.165z M333.854,4.01c-25.723,0-172.924,1.02-267.175,23.599
			c-0.357,0.06-33.373,5.788-40.869,28.227c-6.794,20.338-19.44,58.195-18.735,66.592c0.675,8.043,32.776,57.412,33.1,57.909
			c0.009,0.007,3.578,4.13,8.819,4.131c0.046,0,0.092,0,0.138-0.001h295.306l22.149-100.362c0.095-0.453,9.362-45.95-7.033-68.139
			c-5.227-7.074-12.564-11.093-21.808-11.946C337.605,4.019,336.258,4.01,333.854,4.01z"/>
	</g>
	<path style="opacity:0.46;fill:#6B6B6B;" d="M337.778,3.673c0,0-166.889-1.388-271.18,23.597c0,0-33.467,5.552-41.118,28.455
		c-7.651,22.903-19.441,58.509-18.751,66.732s33.156,58.07,33.156,58.07s3.701,4.365,9.254,4.288h21.472h274.109l22.209-100.635
		C366.927,84.181,382.89,7.837,337.778,3.673z M338.342,86.985l-4.885,22.832H24.206c3.205-13.319,9.807-33.849,14.578-48.579
		C45.496,40.514,74.857,35.49,74.857,35.49c91.497-22.608,237.912-21.352,237.912-21.352
		C352.347,17.906,338.342,86.985,338.342,86.985z"/>
	<g>
		<path style="fill:#FFD165;" d="M8.017,112.985c-0.95,4.271-1.448,7.59-1.29,9.473c0.69,8.223,33.156,58.07,33.156,58.07
			s3.701,4.365,9.254,4.288h295.581l15.852-71.831H8.017z"/>
		<path style="fill:#E08643;" d="M48.985,185.165c-5.562,0-9.214-4.23-9.368-4.412c-1.354-2.073-32.547-50.05-33.236-58.266
			c-0.154-1.833,0.27-4.966,1.296-9.578l0.061-0.273h353.266l-0.093,0.424l-15.913,72.105H49.137
			C49.087,185.165,49.035,185.165,48.985,185.165z M8.297,113.333c-0.954,4.334-1.365,7.393-1.222,9.095
			c0.675,8.043,32.776,57.412,33.1,57.909c0.009,0.007,3.578,4.13,8.819,4.131c0.046,0,0.092,0,0.138-0.001h295.306l15.698-71.134
			H8.297z"/>
	</g>
	<g>
		<path style="fill:#FFD165;" d="M8.017,112.985c-0.95,4.271-1.448,7.59-1.29,9.473c0.69,8.223,33.156,58.07,33.156,58.07
			s3.701,4.365,9.254,4.288h295.581l15.852-71.831H8.017z"/>
		<path style="fill:#E08643;" d="M48.985,185.165c-5.562,0-9.214-4.23-9.368-4.412c-1.354-2.073-32.547-50.05-33.236-58.266
			c-0.154-1.833,0.27-4.966,1.296-9.578l0.061-0.273h353.266l-0.093,0.424l-15.913,72.105H49.137
			C49.087,185.165,49.035,185.165,48.985,185.165z M8.297,113.333c-0.954,4.334-1.365,7.393-1.222,9.095
			c0.675,8.043,32.776,57.412,33.1,57.909c0.009,0.007,3.578,4.13,8.819,4.131c0.046,0,0.092,0,0.138-0.001h295.306l15.698-71.134
			H8.297z"/>
	</g>
	<path style="fill:#FFD165;" d="M8.017,112.985c-0.95,4.271-1.448,7.591-1.29,9.473c0.69,8.224,33.156,58.07,33.156,58.07
		s3.701,4.365,9.254,4.288h295.581l15.852-71.831H8.017z M306.002,178.766H60.208c-4.617,0.064-7.695-3.566-7.695-3.566
		s-26.997-41.451-27.571-48.289c-0.131-1.565,0.282-4.326,1.073-7.877h293.169L306.002,178.766z"/>
	<g style="opacity:0.49;">
		<path style="fill:#A5A79E;" d="M9.288,107.726h352.443l0.462-2.092H9.836C9.646,106.345,9.463,107.043,9.288,107.726z"/>
		<path style="fill:#A5A79E;" d="M11.717,98.882h351.966l0.462-2.092H12.326C12.119,97.495,11.916,98.192,11.717,98.882z"/>
		<path style="fill:#A5A79E;" d="M14.355,90.039h351.279l0.462-2.092H15C14.783,88.648,14.568,89.345,14.355,90.039z"/>
		<path style="fill:#A5A79E;" d="M17.122,81.196h350.352c0.104-0.616,0.217-1.31,0.336-2.092H17.79
			C17.567,79.801,17.344,80.499,17.122,81.196z"/>
		<path style="fill:#A5A79E;" d="M19.975,72.353h348.723c0.075-0.675,0.147-1.375,0.217-2.092H20.659
			C20.432,70.955,20.204,71.652,19.975,72.353z"/>
		<path style="fill:#A5A79E;" d="M22.886,63.509h346.549c0.039-0.688,0.074-1.384,0.104-2.092H23.581
			C23.352,62.108,23.12,62.805,22.886,63.509z"/>
		<path style="fill:#A5A79E;" d="M25.856,54.666h343.81c-0.004-0.693-0.014-1.391-0.029-2.092H26.74
			C26.421,53.255,26.126,53.951,25.856,54.666z"/>
		<path style="fill:#A5A79E;" d="M31.055,45.823h338.239c-0.056-0.697-0.118-1.394-0.189-2.092H32.925
			C32.277,44.402,31.653,45.1,31.055,45.823z"/>
		<path style="fill:#A5A79E;" d="M66.597,27.27c0,0-1.514,0.252-3.966,0.866h303.344c-0.229-0.705-0.467-1.403-0.722-2.092H71.858
			C70.088,26.446,68.334,26.854,66.597,27.27z"/>
		<path style="fill:#A5A79E;" d="M106.908,19.293h255.22c-0.41-0.716-0.845-1.411-1.296-2.092H120.448
			C115.892,17.865,111.374,18.562,106.908,19.293z"/>
		<path style="fill:#A5A79E;" d="M204.492,8.358c-8.476,0.614-17.093,1.308-25.768,2.092h176.139
			c-0.895-0.749-1.839-1.449-2.838-2.092H204.492z"/>
		<path style="fill:#A5A79E;" d="M41.341,36.979h326.821c-0.126-0.7-0.26-1.398-0.405-2.092H44.921
			C43.721,35.534,42.523,36.231,41.341,36.979z"/>
	</g>
	<path style="fill:#454743;" d="M124.563,140.789c0,0.423-0.343,0.765-0.765,0.765s-0.765-0.343-0.765-0.765
		c0-0.423,0.342-0.765,0.765-0.765S124.563,140.366,124.563,140.789z"/>
	<g>
		<g>
			<g>
				<path style="fill:#7A7A7D;" d="M79.989,52.781h-3.335H62.435h-3.335c0,0-7.037-0.597-7.037,7.037c0,2.042,0,4.188,0,6.238
					c0,5.615,0,10.502,0,10.502c0,2.05,0,4.196,0,6.238c0,7.635,7.037,7.037,7.037,7.037h3.335h14.219h3.335
					c0,0,7.037,0.597,7.037-7.037c0-2.042,0-4.188,0-6.238c0,0,0-4.887,0-10.502c0-2.05,0-4.196,0-6.238
					C87.026,52.183,79.989,52.781,79.989,52.781z"/>
				<path style="fill:#5F6062;" d="M58.719,90.194c-0.893,0-3.168-0.172-4.902-1.765c-1.396-1.282-2.104-3.178-2.104-5.634V59.818
					c0-2.456,0.708-4.352,2.104-5.634c2.169-1.994,5.188-1.763,5.312-1.751l20.847-0.001c0.266-0.02,3.182-0.19,5.295,1.752
					c1.396,1.283,2.104,3.179,2.104,5.635v22.978c0,2.456-0.708,4.352-2.104,5.634c-2.17,1.994-5.186,1.762-5.311,1.75L59.1,90.181
					C59.08,90.183,58.943,90.194,58.719,90.194z M58.776,53.12c-0.804,0-2.932,0.145-4.492,1.582
					c-1.243,1.145-1.874,2.866-1.874,5.116v22.978c0,2.25,0.631,3.971,1.874,5.116c1.939,1.786,4.758,1.576,4.786,1.574
					l20.919-0.001c0.056,0.003,2.876,0.214,4.815-1.572c1.243-1.145,1.874-2.866,1.874-5.116V59.818c0-2.25-0.63-3.972-1.874-5.117
					c-1.938-1.786-4.756-1.574-4.785-1.574l-0.029,0.001H59.1C59.089,53.129,58.972,53.12,58.776,53.12z"/>
			</g>
			<path style="fill:#7A7A7D;" d="M79.344,53.928h-3.13H62.874h-3.13c0,0-6.603-0.561-6.603,6.603c0,1.916,0,3.929,0,5.853
				c0,5.268,0,9.853,0,9.853c0,1.923,0,3.937,0,5.853c0,7.163,6.603,6.603,6.603,6.603h3.13h13.341h3.13
				c0,0,6.603,0.561,6.603-6.603c0-1.916,0-3.929,0-5.853c0,0,0-4.585,0-9.853c0-1.923,0-3.937,0-5.853
				C85.947,53.367,79.344,53.928,79.344,53.928z"/>
			<g>
				<path style="fill:#7A7A7D;" d="M78.754,54.865h-2.941H63.276h-2.941c0,0-6.205-0.527-6.205,6.205c0,1.8,0,3.693,0,5.5
					c0,4.951,0,9.26,0,9.26c0,1.807,0,3.7,0,5.5c0,6.732,6.205,6.205,6.205,6.205h2.941h12.537h2.941c0,0,6.205,0.527,6.205-6.205
					c0-1.8,0-3.693,0-5.5c0,0,0-4.309,0-9.26c0-1.808,0-3.7,0-5.5C84.959,54.338,78.754,54.865,78.754,54.865z"/>
				<path style="fill:#48494B;" d="M59.999,87.895c-0.79,0-2.81-0.152-4.35-1.567c-1.24-1.139-1.868-2.821-1.868-4.998V61.07
					c0-2.178,0.628-3.859,1.868-4.998c1.925-1.769,4.603-1.565,4.715-1.554l18.376-0.001c0.248-0.02,2.828-0.163,4.699,1.556
					c1.24,1.139,1.868,2.821,1.868,4.998v20.26c0,2.178-0.628,3.859-1.868,4.998c-1.925,1.769-4.604,1.563-4.715,1.554l-18.39,0.001
					C60.318,87.886,60.197,87.895,59.999,87.895z M60.051,55.206c-0.705,0-2.57,0.127-3.934,1.384
					c-1.087,1.001-1.638,2.509-1.638,4.48v20.26c0,1.974,0.553,3.483,1.643,4.485c1.702,1.564,4.161,1.375,4.184,1.373l18.448-0.001
					c0.053,0.004,2.523,0.186,4.218-1.376c1.087-1.001,1.638-2.509,1.638-4.48V61.07c0-1.974-0.553-3.483-1.643-4.485
					c-1.702-1.564-4.159-1.374-4.184-1.373l-0.029,0.001H60.335C60.325,55.213,60.222,55.206,60.051,55.206z"/>
			</g>
		</g>
		<path style="fill:#7A7A7D;" d="M78.754,54.865h-2.941h-1.311L54.13,67.122c0,1.886,0,3.654,0,5.099l27.815-16.735
			C80.364,54.731,78.754,54.865,78.754,54.865z"/>
		<path style="fill:#7A7A7D;" d="M56.375,86.466c1.1,0.776,2.354,1.001,3.151,1.059l25.433-15.302c0-0.881,0-1.879,0-2.955
			L56.375,86.466z"/>
		<path style="fill:#7A7A7D;" d="M78.754,54.865h-2.941H63.276h-2.941c0,0-6.205-0.527-6.205,6.205c0,1.8,0,3.693,0,5.5
			c0,4.951,0,9.26,0,9.26c0,1.807,0,3.7,0,5.5c0,6.732,6.205,6.205,6.205,6.205h2.941h12.537h2.941c0,0,6.205,0.527,6.205-6.205
			c0-1.8,0-3.693,0-5.5c0,0,0-4.309,0-9.26c0-1.808,0-3.7,0-5.5C84.959,54.338,78.754,54.865,78.754,54.865z M83.123,67.122
			c0,4.361,0,8.157,0,8.157c0,1.592,0,3.259,0,4.845c0,5.93-5.466,5.466-5.466,5.466h-2.591H64.022h-2.591
			c0,0-5.466,0.464-5.466-5.466c0-1.586,0-3.253,0-4.845c0,0,0-3.796,0-8.157c0-1.592,0-3.259,0-4.845
			c0-5.93,5.466-5.466,5.466-5.466h2.591h11.044h2.591c0,0,5.466-0.464,5.466,5.466C83.123,63.863,83.123,65.53,83.123,67.122z"/>
	</g>
	<g>
		<g>
			<path style="fill:#D6182A;" d="M21.222,120.887c0,2.896-2.348,5.244-5.244,5.244c-2.896,0-5.244-2.348-5.244-5.244
				c0-2.896,2.348-5.244,5.244-5.244C18.874,115.644,21.222,117.991,21.222,120.887z"/>
			<path style="fill:#721A23;" d="M15.978,126.48c-3.084,0-5.593-2.509-5.593-5.592c0-3.084,2.509-5.593,5.593-5.593
				c3.084,0,5.592,2.509,5.592,5.593C21.57,123.971,19.062,126.48,15.978,126.48z M15.978,115.992c-2.7,0-4.896,2.196-4.896,4.895
				c0,2.699,2.196,4.895,4.896,4.895c2.699,0,4.895-2.196,4.895-4.895C20.873,118.188,18.677,115.992,15.978,115.992z"/>
		</g>
		<path style="fill:#EF6543;" d="M19.285,120.887c0,2.061-1.671,3.731-3.731,3.731c-2.061,0-3.731-1.671-3.731-3.731
			c0-2.061,1.67-3.731,3.731-3.731C17.614,117.156,19.285,118.827,19.285,120.887z"/>
		<circle style="fill:#FCF8CB;" cx="14.011" cy="119.345" r="1.094"/>
	</g>
	<g>
		<polygon style="fill:#D6182A;" points="27.391,74.927 27.391,68.604 23.149,68.604 20.72,74.927 		"/>
		<path style="fill:#721A23;" d="M27.39,75.276h-6.67c-0.115,0-0.222-0.057-0.287-0.151c-0.065-0.095-0.079-0.215-0.038-0.322
			l2.429-6.324c0.052-0.135,0.181-0.224,0.326-0.224h4.241c0.193,0,0.349,0.156,0.349,0.349v6.324
			C27.739,75.12,27.583,75.276,27.39,75.276z M21.228,74.578h5.814v-5.626h-3.653L21.228,74.578z"/>
	</g>
	<path style="fill:#FFFFFF;" d="M25.752,71.631v-0.648c0-0.694-0.563-1.257-1.257-1.257l0,0c-0.52,0-0.987,0.321-1.173,0.806
		l-0.249,0.648c-0.316,0.823,0.292,1.708,1.173,1.708h0.249C25.189,72.888,25.752,72.325,25.752,71.631z"/>
	<g>
		<g>
			<rect x="121.914" y="118.537" style="fill:#95979A;" width="47.888" height="24.552"/>
			<path style="fill:#555752;" d="M170.151,143.437h-48.586v-25.249h48.586V143.437z M122.262,142.74h47.192v-23.855h-47.192V142.74
				z"/>
		</g>
		<path style="opacity:0.59;fill:#95979A;" d="M151.102,140.999c6.139-4.673,12.673-8.853,18.7-13.669v-2.977
			c-0.218,0.162-0.433,0.327-0.651,0.489c-5.447,4.045-10.921,8.054-16.375,12.09c-2.759,2.042-5.514,4.092-8.256,6.156h3.918
			C149.317,142.381,150.204,141.683,151.102,140.999z"/>
		<path style="opacity:0.59;fill:#95979A;" d="M129.829,136.519c5.844-4.009,11.795-7.856,17.636-11.868
			c2.931-2.013,5.843-4.053,8.74-6.114h-6.425c-5.523,3.636-11.048,7.27-16.518,10.985c-3.818,2.593-7.605,5.231-11.348,7.929v4.284
			C124.602,140.074,127.224,138.306,129.829,136.519z"/>
		<g>
			<path style="fill:#454743;" d="M123.797,120.122c0,0.211-0.171,0.383-0.383,0.383c-0.211,0-0.382-0.171-0.382-0.383
				c0-0.211,0.171-0.383,0.382-0.383C123.626,119.74,123.797,119.911,123.797,120.122z"/>
			<path style="fill:#454743;" d="M123.797,141.172c0,0.211-0.171,0.383-0.383,0.383c-0.211,0-0.382-0.171-0.382-0.383
				s0.171-0.383,0.382-0.383C123.626,140.789,123.797,140.96,123.797,141.172z"/>
		</g>
		<g>
			<circle style="fill:#454743;" cx="168.064" cy="120.122" r="0.383"/>
			<circle style="fill:#454743;" cx="168.064" cy="141.172" r="0.383"/>
		</g>
		<g>
			<g>
				<path style="fill:#3F413D;" d="M144.575,121.931h-20.019c-0.287,0-0.521-0.235-0.521-0.522l0,0c0-0.287,0.235-0.522,0.521-0.522
					h20.019c0.287,0,0.522,0.235,0.522,0.522l0,0C145.097,121.696,144.862,121.931,144.575,121.931z"/>
				<path style="fill:#3F413D;" d="M144.575,124.029h-20.019c-0.287,0-0.521-0.235-0.521-0.522l0,0c0-0.287,0.235-0.522,0.521-0.522
					h20.019c0.287,0,0.522,0.235,0.522,0.522l0,0C145.097,123.794,144.862,124.029,144.575,124.029z"/>
				<path style="fill:#3F413D;" d="M144.575,128.226h-20.019c-0.287,0-0.521-0.235-0.521-0.522l0,0c0-0.287,0.235-0.522,0.521-0.522
					h20.019c0.287,0,0.522,0.235,0.522,0.522l0,0C145.097,127.991,144.862,128.226,144.575,128.226z"/>
				<path style="fill:#3F413D;" d="M144.575,126.127h-20.019c-0.287,0-0.521-0.235-0.521-0.522l0,0c0-0.287,0.235-0.522,0.521-0.522
					h20.019c0.287,0,0.522,0.235,0.522,0.522l0,0C145.097,125.893,144.862,126.127,144.575,126.127z"/>
				<path style="fill:#3F413D;" d="M144.575,130.324h-20.019c-0.287,0-0.521-0.235-0.521-0.522l0,0c0-0.287,0.235-0.522,0.521-0.522
					h20.019c0.287,0,0.522,0.235,0.522,0.522l0,0C145.097,130.089,144.862,130.324,144.575,130.324z"/>
				<path style="fill:#3F413D;" d="M144.575,132.422h-20.019c-0.287,0-0.521-0.235-0.521-0.522l0,0c0-0.287,0.235-0.522,0.521-0.522
					h20.019c0.287,0,0.522,0.235,0.522,0.522l0,0C145.097,132.188,144.862,132.422,144.575,132.422z"/>
				<path style="fill:#3F413D;" d="M144.575,134.521h-20.019c-0.287,0-0.521-0.235-0.521-0.522l0,0c0-0.287,0.235-0.522,0.521-0.522
					h20.019c0.287,0,0.522,0.235,0.522,0.522l0,0C145.097,134.286,144.862,134.521,144.575,134.521z"/>
				<path style="fill:#3F413D;" d="M144.575,136.619h-20.019c-0.287,0-0.521-0.235-0.521-0.522l0,0c0-0.287,0.235-0.521,0.521-0.521
					h20.019c0.287,0,0.522,0.235,0.522,0.521l0,0C145.097,136.384,144.862,136.619,144.575,136.619z"/>
			</g>
			<g>
				<path style="fill:#3F413D;" d="M167.16,121.931h-20.019c-0.287,0-0.521-0.235-0.521-0.522l0,0c0-0.287,0.235-0.522,0.521-0.522
					h20.019c0.287,0,0.522,0.235,0.522,0.522l0,0C167.682,121.696,167.447,121.931,167.16,121.931z"/>
				<path style="fill:#3F413D;" d="M167.16,124.029h-20.019c-0.287,0-0.521-0.235-0.521-0.522l0,0c0-0.287,0.235-0.522,0.521-0.522
					h20.019c0.287,0,0.522,0.235,0.522,0.522l0,0C167.682,123.794,167.447,124.029,167.16,124.029z"/>
				<path style="fill:#3F413D;" d="M167.16,128.226h-20.019c-0.287,0-0.521-0.235-0.521-0.522l0,0c0-0.287,0.235-0.522,0.521-0.522
					h20.019c0.287,0,0.522,0.235,0.522,0.522l0,0C167.682,127.991,167.447,128.226,167.16,128.226z"/>
				<path style="fill:#3F413D;" d="M167.16,126.127h-20.019c-0.287,0-0.521-0.235-0.521-0.522l0,0c0-0.287,0.235-0.522,0.521-0.522
					h20.019c0.287,0,0.522,0.235,0.522,0.522l0,0C167.682,125.893,167.447,126.127,167.16,126.127z"/>
				<path style="fill:#3F413D;" d="M167.16,130.324h-20.019c-0.287,0-0.521-0.235-0.521-0.522l0,0c0-0.287,0.235-0.522,0.521-0.522
					h20.019c0.287,0,0.522,0.235,0.522,0.522l0,0C167.682,130.089,167.447,130.324,167.16,130.324z"/>
				<path style="fill:#3F413D;" d="M167.16,132.422h-20.019c-0.287,0-0.521-0.235-0.521-0.522l0,0c0-0.287,0.235-0.522,0.521-0.522
					h20.019c0.287,0,0.522,0.235,0.522,0.522l0,0C167.682,132.188,167.447,132.422,167.16,132.422z"/>
				<path style="fill:#3F413D;" d="M167.16,134.521h-20.019c-0.287,0-0.521-0.235-0.521-0.522l0,0c0-0.287,0.235-0.522,0.521-0.522
					h20.019c0.287,0,0.522,0.235,0.522,0.522l0,0C167.682,134.286,167.447,134.521,167.16,134.521z"/>
				<path style="fill:#3F413D;" d="M167.16,136.619h-20.019c-0.287,0-0.521-0.235-0.521-0.522l0,0c0-0.287,0.235-0.521,0.521-0.521
					h20.019c0.287,0,0.522,0.235,0.522,0.521l0,0C167.682,136.384,167.447,136.619,167.16,136.619z"/>
			</g>
		</g>
	</g>
	<g>
		<g>
			<rect x="300.398" y="164.505" style="fill:#FFD165;" width="33.083" height="16.962"/>
			<path style="fill:#E08643;" d="M333.83,181.815h-33.781v-17.659h33.781V181.815z M300.746,181.117h32.387v-16.264h-32.387
				V181.117z"/>
		</g>
		<path style="opacity:0.59;fill:#95979A;" d="M320.562,180.022c4.241-3.228,8.755-6.116,12.919-9.443v-2.057
			c-0.15,0.112-0.299,0.226-0.45,0.338c-3.763,2.795-7.545,5.564-11.313,8.353c-1.906,1.411-3.809,2.827-5.704,4.253h2.707
			C319.329,180.977,319.942,180.495,320.562,180.022z"/>
		<path style="opacity:0.59;fill:#95979A;" d="M305.866,176.927c4.037-2.77,8.148-5.427,12.184-8.199
			c2.025-1.391,4.037-2.8,6.038-4.224h-4.439c-3.815,2.512-7.632,5.022-11.411,7.589c-2.637,1.791-5.254,3.614-7.84,5.478v2.959
			C302.255,179.383,304.066,178.162,305.866,176.927z"/>
		<g>
			<circle style="fill:#454743;" cx="301.435" cy="165.6" r="0.264"/>
			<path style="fill:#454743;" d="M301.699,180.141c0,0.146-0.118,0.264-0.264,0.264c-0.146,0-0.264-0.118-0.264-0.264
				c0-0.146,0.118-0.264,0.264-0.264C301.581,179.877,301.699,179.995,301.699,180.141z"/>
		</g>
		<g>
			<circle style="fill:#454743;" cx="332.281" cy="165.6" r="0.264"/>
			<path style="fill:#454743;" d="M332.545,180.141c0,0.146-0.118,0.264-0.264,0.264s-0.264-0.118-0.264-0.264
				c0-0.146,0.118-0.264,0.264-0.264S332.545,179.995,332.545,180.141z"/>
		</g>
		<g>
			<g>
				<path style="fill:#3F413D;" d="M316.053,166.849h-13.83c-0.198,0-0.36-0.162-0.36-0.36l0,0c0-0.198,0.162-0.36,0.36-0.36h13.83
					c0.198,0,0.36,0.162,0.36,0.36l0,0C316.414,166.687,316.251,166.849,316.053,166.849z"/>
				<path style="fill:#3F413D;" d="M316.053,168.299h-13.83c-0.198,0-0.36-0.162-0.36-0.36l0,0c0-0.198,0.162-0.36,0.36-0.36h13.83
					c0.198,0,0.36,0.162,0.36,0.36l0,0C316.414,168.137,316.251,168.299,316.053,168.299z"/>
				<path style="fill:#3F413D;" d="M316.053,171.198h-13.83c-0.198,0-0.36-0.162-0.36-0.36l0,0c0-0.198,0.162-0.361,0.36-0.361
					h13.83c0.198,0,0.36,0.162,0.36,0.361l0,0C316.414,171.036,316.251,171.198,316.053,171.198z"/>
				<path style="fill:#3F413D;" d="M316.053,169.748h-13.83c-0.198,0-0.36-0.162-0.36-0.36l0,0c0-0.198,0.162-0.36,0.36-0.36h13.83
					c0.198,0,0.36,0.162,0.36,0.36l0,0C316.414,169.586,316.251,169.748,316.053,169.748z"/>
				<path style="fill:#3F413D;" d="M316.053,172.648h-13.83c-0.198,0-0.36-0.162-0.36-0.36l0,0c0-0.198,0.162-0.36,0.36-0.36h13.83
					c0.198,0,0.36,0.162,0.36,0.36l0,0C316.414,172.485,316.251,172.648,316.053,172.648z"/>
				<path style="fill:#3F413D;" d="M316.053,174.097h-13.83c-0.198,0-0.36-0.162-0.36-0.36l0,0c0-0.198,0.162-0.36,0.36-0.36h13.83
					c0.198,0,0.36,0.162,0.36,0.36l0,0C316.414,173.935,316.251,174.097,316.053,174.097z"/>
				<path style="fill:#3F413D;" d="M316.053,175.547h-13.83c-0.198,0-0.36-0.162-0.36-0.36l0,0c0-0.198,0.162-0.36,0.36-0.36h13.83
					c0.198,0,0.36,0.162,0.36,0.36l0,0C316.414,175.385,316.251,175.547,316.053,175.547z"/>
				<path style="fill:#3F413D;" d="M316.053,176.996h-13.83c-0.198,0-0.36-0.162-0.36-0.36l0,0c0-0.198,0.162-0.36,0.36-0.36h13.83
					c0.198,0,0.36,0.162,0.36,0.36l0,0C316.414,176.834,316.251,176.996,316.053,176.996z"/>
			</g>
			<g>
				<path style="fill:#3F413D;" d="M331.656,166.849h-13.83c-0.198,0-0.36-0.162-0.36-0.36l0,0c0-0.198,0.162-0.36,0.36-0.36h13.83
					c0.198,0,0.36,0.162,0.36,0.36l0,0C332.016,166.687,331.854,166.849,331.656,166.849z"/>
				<path style="fill:#3F413D;" d="M331.656,168.299h-13.83c-0.198,0-0.36-0.162-0.36-0.36l0,0c0-0.198,0.162-0.36,0.36-0.36h13.83
					c0.198,0,0.36,0.162,0.36,0.36l0,0C332.016,168.137,331.854,168.299,331.656,168.299z"/>
				<path style="fill:#3F413D;" d="M331.656,171.198h-13.83c-0.198,0-0.36-0.162-0.36-0.36l0,0c0-0.198,0.162-0.361,0.36-0.361
					h13.83c0.198,0,0.36,0.162,0.36,0.361l0,0C332.016,171.036,331.854,171.198,331.656,171.198z"/>
				<path style="fill:#3F413D;" d="M331.656,169.748h-13.83c-0.198,0-0.36-0.162-0.36-0.36l0,0c0-0.198,0.162-0.36,0.36-0.36h13.83
					c0.198,0,0.36,0.162,0.36,0.36l0,0C332.016,169.586,331.854,169.748,331.656,169.748z"/>
				<path style="fill:#3F413D;" d="M331.656,172.648h-13.83c-0.198,0-0.36-0.162-0.36-0.36l0,0c0-0.198,0.162-0.36,0.36-0.36h13.83
					c0.198,0,0.36,0.162,0.36,0.36l0,0C332.016,172.485,331.854,172.648,331.656,172.648z"/>
				<path style="fill:#3F413D;" d="M331.656,174.097h-13.83c-0.198,0-0.36-0.162-0.36-0.36l0,0c0-0.198,0.162-0.36,0.36-0.36h13.83
					c0.198,0,0.36,0.162,0.36,0.36l0,0C332.016,173.935,331.854,174.097,331.656,174.097z"/>
				<path style="fill:#3F413D;" d="M331.656,175.547h-13.83c-0.198,0-0.36-0.162-0.36-0.36l0,0c0-0.198,0.162-0.36,0.36-0.36h13.83
					c0.198,0,0.36,0.162,0.36,0.36l0,0C332.016,175.385,331.854,175.547,331.656,175.547z"/>
				<path style="fill:#3F413D;" d="M331.656,176.996h-13.83c-0.198,0-0.36-0.162-0.36-0.36l0,0c0-0.198,0.162-0.36,0.36-0.36h13.83
					c0.198,0,0.36,0.162,0.36,0.36l0,0C332.016,176.834,331.854,176.996,331.656,176.996z"/>
			</g>
		</g>
	</g>
	<g>
		<path style="fill:#333632;" d="M146.191,180.761c-0.173-0.555-4.241-13.625-5.504-16.389c-1.347-2.952-7.921-2.833-8.192-2.826
			l-33.891,0.001c-4.304,0.263-5.799,3.154-5.869,3.293l-6.491,14.842c-1.439,4.606-4.043,4.781-4.153,4.786l0.014,0.697h67.09
			l0.007-0.697C146.757,184.415,146.208,180.851,146.191,180.761z"/>
		<path style="fill:#808285;" d="M149.54,185.513H81.763l-0.027-1.378l0.339-0.016c0.1-0.005,2.47-0.165,3.837-4.541l6.505-14.878
			c0.072-0.147,1.655-3.226,6.167-3.502l33.912-0.001c0.712-0.018,7.091-0.078,8.509,3.03c1.224,2.679,5.077,15.012,5.513,16.41
			l0.02,0.079c0.059,0.344,0.635,3.36,2.673,3.402l0.344,0.007L149.54,185.513z M82.447,184.815h66.403l0.001-0.028
			c-2.25-0.324-2.887-3.298-2.999-3.944c-0.436-1.398-4.275-13.687-5.481-16.327c-1.254-2.747-7.796-2.627-7.867-2.622
			l-33.899,0.001c-4.093,0.251-5.499,2.984-5.557,3.1l-6.483,14.826c-1.212,3.885-3.301,4.749-4.118,4.94L82.447,184.815z"/>
	</g>
	<g>
		<defs>
			<path id="SVGID_1_" d="M149.195,184.816c-2.776-0.059-3.337-3.951-3.337-3.951s-4.22-13.572-5.488-16.348
				c-1.268-2.776-7.875-2.622-7.875-2.622h-33.87c-4.153,0.254-5.57,3.085-5.57,3.085l-6.478,14.806
				c-1.542,4.935-4.472,5.03-4.472,5.03h3.607c-0.661,4.062-1.808,17.491,9.657,26.818c13.649,11.104,41.255,5.957,48.157-8.936
				c4.47-9.643,4.128-15.177,3.332-17.882H149.195z"/>
		</defs>
		<clipPath id="SVGID_00000163056243945165621570000003445666824266066063_">
			<use xlink:href="#SVGID_1_"  style="overflow:visible;"/>
		</clipPath>
		<g style="clip-path:url(#SVGID_00000163056243945165621570000003445666824266066063_);">
			<path d="M145.19,187.503c-0.195,15.946-13.28,28.715-29.226,28.52c-15.946-0.195-28.715-13.28-28.52-29.226
				c0.195-15.946,13.28-28.715,29.226-28.52C132.617,158.472,145.385,171.557,145.19,187.503z"/>
			<path style="fill:#2A2C2C;" d="M143.524,187.483c-0.184,15.026-12.514,27.058-27.54,26.874
				c-15.026-0.184-27.058-12.514-26.874-27.54c0.184-15.026,12.514-27.058,27.54-26.874
				C131.676,160.127,143.708,172.457,143.524,187.483z"/>
			<path style="fill:#797A7D;" d="M116.98,161.335c9.932,0.121,18.578,5.342,23.39,13.087c-4.512-8.509-13.411-14.353-23.72-14.48
				c-13.937-0.17-25.547,10.171-27.305,23.66C91.735,170.799,103.25,161.167,116.98,161.335z"/>
			<path d="M136.313,186.839c-0.135,11.04-9.194,19.879-20.233,19.744c-11.039-0.135-19.879-9.194-19.744-20.233
				c0.135-11.04,9.194-19.879,20.233-19.744C127.608,166.741,136.448,175.8,136.313,186.839z"/>
			
				<ellipse transform="matrix(0.3893 -0.9211 0.9211 0.3893 -100.9659 221.1746)" style="fill:#76C9B6;" cx="116.322" cy="186.734" rx="18.602" ry="18.602"/>
			
				<ellipse transform="matrix(0.2008 -0.9796 0.9796 0.2008 -89.963 263.1975)" style="fill:#FFFFFF;" cx="116.322" cy="186.734" rx="15.27" ry="15.27"/>
			<g>
				<path style="fill:#7B7C7F;" d="M129.093,186.89c-0.086,7.053-5.874,12.701-12.927,12.614
					c-7.053-0.086-12.701-5.874-12.614-12.927c0.086-7.053,5.874-12.701,12.927-12.614
					C123.532,174.049,129.179,179.837,129.093,186.89z"/>
				<path style="fill:#47494B;" d="M116.324,199.854c-0.055,0-0.108,0-0.162-0.001c-7.234-0.089-13.047-6.046-12.959-13.28
					c0.043-3.505,1.448-6.783,3.956-9.23c2.469-2.409,5.715-3.73,9.159-3.73c0.054,0,0.11,0,0.165,0.001
					c3.505,0.043,6.782,1.448,9.23,3.956c2.447,2.508,3.771,5.82,3.729,9.324C129.354,194.073,123.485,199.854,116.324,199.854z
					 M116.318,174.311c-3.26,0-6.334,1.25-8.672,3.532c-2.374,2.317-3.705,5.421-3.746,8.739c-0.083,6.849,5.421,12.49,12.27,12.574
					c0.051,0.001,0.103,0.001,0.154,0.001c6.781,0.001,12.338-5.473,12.42-12.271v0c0.041-3.318-1.213-6.453-3.53-8.828
					c-2.318-2.375-5.421-3.705-8.74-3.746C116.422,174.311,116.369,174.311,116.318,174.311z"/>
			</g>
			<path style="fill:#9DAEB4;" d="M125.047,182.814c-0.053,4.293-4.073,7.725-8.979,7.665c-4.907-0.06-8.841-3.589-8.789-7.882
				c0.053-4.293,4.072-7.725,8.979-7.665C121.165,174.992,125.1,178.521,125.047,182.814z"/>
			<g>
				<path style="fill:#5D615F;" d="M117.433,169.671c-0.006,0.46-0.383,0.828-0.843,0.823c-0.46-0.006-0.828-0.383-0.823-0.843
					c0.006-0.46,0.383-0.828,0.843-0.823C117.071,168.833,117.439,169.211,117.433,169.671z"/>
				<path style="fill:#5D615F;" d="M117.019,203.541c-0.006,0.46-0.383,0.828-0.843,0.823c-0.46-0.006-0.828-0.383-0.823-0.843
					c0.006-0.46,0.383-0.828,0.843-0.823C116.656,202.703,117.025,203.081,117.019,203.541z"/>
			</g>
			<g>
				<path style="fill:#5D615F;" d="M133.318,187.636c-0.46-0.006-0.828-0.383-0.823-0.843c0.006-0.46,0.383-0.828,0.843-0.823
					c0.46,0.006,0.828,0.383,0.823,0.843C134.156,187.273,133.778,187.641,133.318,187.636z"/>
				<path style="fill:#5D615F;" d="M99.448,187.221c-0.46-0.006-0.828-0.383-0.823-0.843c0.006-0.46,0.383-0.828,0.843-0.823
					c0.46,0.006,0.828,0.383,0.823,0.843C100.286,186.859,99.908,187.227,99.448,187.221z"/>
			</g>
		</g>
	</g>
	<g>
		<path style="fill:#FFD165;" d="M149.196,185.861c-0.008,0-0.015,0-0.023,0c-2.845-0.06-4.055-2.98-4.337-4.761
			c-0.34-1.092-4.239-13.57-5.417-16.149c-0.739-1.618-4.974-2.051-6.9-2.011l-33.894,0c-3.39,0.209-4.591,2.422-4.64,2.516
			l-6.428,14.697c-1.75,5.526-5.27,5.703-5.419,5.708c-0.567,0.017-1.061-0.434-1.079-1.011c-0.018-0.57,0.424-1.049,0.991-1.078
			c0.131-0.012,2.269-0.268,3.529-4.298c0.012-0.036,0.025-0.073,0.04-0.107l6.477-14.806c0.092-0.187,1.764-3.422,6.465-3.71
			l33.934-0.002c0.723-0.015,7.316-0.075,8.826,3.234c1.281,2.804,5.362,15.915,5.536,16.472c0.016,0.053,0.029,0.107,0.036,0.161
			c0.004,0.027,0.474,3.015,2.325,3.054c0.577,0.012,1.036,0.49,1.023,1.068C150.229,185.408,149.763,185.861,149.196,185.861z"/>
		<path style="fill:#E08643;" d="M149.196,186.21l-0.037-0.001c-3.063-0.065-4.375-3.208-4.667-5.055
			c-0.16-0.501-4.205-13.465-5.39-16.059c-0.574-1.257-4.196-1.86-6.575-1.807l-33.901,0c-3.183,0.197-4.285,2.242-4.331,2.329
			l-6.418,14.675c-1.811,5.726-5.568,5.912-5.728,5.916c-0.764,0.023-1.414-0.582-1.439-1.348c-0.024-0.754,0.569-1.399,1.322-1.438
			c0.069-0.006,2.018-0.227,3.214-4.053c0.016-0.051,0.034-0.099,0.055-0.146l6.476-14.802c0.079-0.161,1.833-3.617,6.763-3.918
			l33.955-0.003c1.253-0.021,7.585,0.021,9.143,3.438c1.214,2.659,4.831,14.203,5.544,16.49c0.029,0.095,0.046,0.167,0.056,0.241
			c0.003,0.022,0.44,2.72,1.987,2.753c0.769,0.016,1.381,0.655,1.364,1.424C150.573,185.598,149.948,186.21,149.196,186.21z
			 M132.769,162.589c1.868,0,6.13,0.382,6.967,2.217c1.182,2.589,5.001,14.806,5.433,16.19c0.269,1.683,1.402,4.461,4.011,4.516
			l0.016,0.349v-0.349c0.376,0,0.688-0.306,0.697-0.683c0.008-0.384-0.298-0.703-0.682-0.712c-2.141-0.046-2.657-3.318-2.662-3.351
			c-0.006-0.04-0.014-0.076-0.025-0.11c-0.443-1.42-4.298-13.755-5.52-16.431c-1.407-3.083-7.779-3.047-8.502-3.03l-33.94,0.002
			c-4.508,0.276-6.087,3.383-6.152,3.515l-6.471,14.792c-0.012,0.026-0.02,0.05-0.027,0.073c-1.311,4.192-3.576,4.516-3.83,4.539
			c-0.389,0.02-0.686,0.343-0.673,0.72c0.012,0.377,0.369,0.708,0.72,0.674c0.138-0.004,3.42-0.169,5.097-5.464l6.441-14.731
			c0.063-0.123,1.345-2.502,4.937-2.724l33.915-0.001C132.597,162.59,132.68,162.589,132.769,162.589z"/>
	</g>
	<g>
		<g>
			<rect x="174.78" y="31.108" style="fill:#95979A;" width="71.526" height="151.145"/>
			<path style="fill:#555752;" d="M246.654,182.602h-72.223V30.759h72.223V182.602z M175.129,181.904h70.829V31.456h-70.829V181.904
				z"/>
		</g>
		<g>
			<rect x="177.161" y="33.884" style="fill:#FFFFFF;" width="66.422" height="148.369"/>
			<path style="fill:#A5A79E;" d="M243.932,182.602h-67.12V33.535h67.12V182.602z M177.51,181.904h65.725V34.233H177.51V181.904z"/>
		</g>
		<rect x="177.161" y="112.985" style="fill:#FFD165;" width="66.422" height="69.268"/>
		<g>
			<g>
				<path style="fill:#5A5D5F;" d="M249.035,194.63l-1.224-0.001l-3.601-3.893h-26.455h-14.424h-26.455l-3.521,3.806l-1.304-0.002
					v2.003c-0.005,0.508,0.397,0.997,1.846,1.132h27.614h18.065h27.614c1.701-0.159,1.957-0.805,1.806-1.397L249.035,194.63z"/>
				<path style="fill:#555752;" d="M219.576,198.024h-45.679c-1.831-0.169-2.201-0.901-2.195-1.485v-2.348l1.5,0.002l3.521-3.806
					h67.639l3.601,3.893l1.429,0.002l-0.048,1.961c0.082,0.366,0.023,0.704-0.172,0.979c-0.315,0.446-0.953,0.708-1.951,0.801
					L219.576,198.024z M172.4,194.889v1.654c-0.006,0.531,0.829,0.72,1.529,0.785l73.261-0.001c0.98-0.092,1.308-0.358,1.414-0.508
					c0.054-0.076,0.118-0.206,0.054-0.455l-0.012-0.046l0.033-1.34l-1.019-0.001l-3.601-3.892h-67.029l-3.521,3.807L172.4,194.889z"
					/>
			</g>
		</g>
		<g>
			<path style="fill:#95979A;" d="M248.348,193.203l-4.138-4.473h-26.455h-14.424h-26.455l-4.138,4.473c0,0-2.152,2.159,1.158,2.467
				h27.614h18.065h27.614C250.499,195.362,248.348,193.203,248.348,193.203z"/>
			<path style="fill:#555752;" d="M219.576,196.019h-45.679c-1.221-0.112-1.906-0.462-2.126-1.072
				c-0.327-0.904,0.612-1.882,0.72-1.991l4.232-4.575h67.639l4.237,4.58c0.128,0.13,1.038,1.095,0.715,1.986
				c-0.22,0.609-0.905,0.959-2.093,1.07L219.576,196.019z M177.028,189.079l-4.034,4.361c-0.202,0.204-0.719,0.855-0.568,1.271
				c0.115,0.316,0.648,0.533,1.503,0.613l73.26-0.001c0.822-0.078,1.356-0.296,1.47-0.611c0.151-0.416-0.366-1.067-0.559-1.262
				l-4.043-4.37H177.028z"/>
		</g>
		<path style="fill:#D6D3BC;" d="M177.161,33.884v148.369h66.422V33.884H177.161z M239.403,169.19h-58.061V39.498h58.061V169.19z"/>
	</g>
	<g>
		<path style="fill:#95979A;" d="M269.957,88.993h55.214c8.945,0,10.263-4.676,10.263-4.676c3.531-11.063,9.168-37.238,9.168-37.238
			c-0.308-9.716-9.168-9.185-9.168-9.185h-40.955h-11.567c0,0-7.402-0.925-9.562,3.856c-2.159,4.781-10.334,40.717-10.334,40.717
			S259.623,88.993,269.957,88.993z"/>
		<path style="fill:#555752;" d="M325.171,89.342h-55.214c-3.79,0-6.24-0.87-7.281-2.584c-1.142-1.881-0.157-4.069,0.009-4.41
			c0.449-1.974,8.215-36.021,10.346-40.742c2.241-4.958,9.611-4.097,9.923-4.058l52.478-0.003c0.135-0.008,3.858-0.2,6.635,2.334
			c1.813,1.654,2.782,4.073,2.882,7.189l0.001,0.042l-0.009,0.042c-0.057,0.262-5.681,26.318-9.177,37.27
			C335.713,84.613,334.276,89.342,325.171,89.342z M281.503,38.175c-2.203,0-6.361,0.453-7.835,3.718
			c-2.12,4.695-10.23,40.292-10.312,40.65l-0.03,0.083c-0.011,0.021-1.066,2.108-0.052,3.773c0.908,1.49,3.156,2.244,6.682,2.244
			h55.214c8.536,0,9.915-4.38,9.928-4.424c3.423-10.725,8.896-35.98,9.154-37.173c-0.1-2.897-0.991-5.134-2.648-6.649
			c-2.555-2.336-6.115-2.158-6.15-2.157l-52.542,0.001C282.881,38.239,282.329,38.175,281.503,38.175z"/>
	</g>
	<g>
		<path style="fill:#47484A;" d="M273.11,86.591h50.031c8.105,0,9.299-4.237,9.299-4.237c3.199-10.024,8.307-33.742,8.307-33.742
			c-0.279-8.804-8.307-8.323-8.307-8.323h-37.11h-10.481c0,0-6.707-0.838-8.664,3.494c-1.957,4.332-9.363,36.894-9.363,36.894
			S263.747,86.591,273.11,86.591z"/>
		<path style="fill:#48494B;" d="M323.141,86.94H273.11c-3.446,0-5.675-0.793-6.625-2.357c-1.04-1.713-0.152-3.7,0.005-4.024
			c0.416-1.827,7.444-32.642,9.376-36.919c2.039-4.513,8.739-3.732,9.026-3.696l47.547-0.003c0.119-0.008,3.507-0.183,6.034,2.123
			c1.65,1.505,2.532,3.704,2.622,6.537l0.001,0.043l-0.009,0.042c-0.052,0.237-5.149,23.849-8.317,33.774
			C332.724,82.632,331.415,86.94,323.141,86.94z M283.572,40.577c-1.991,0-5.741,0.409-7.069,3.349
			c-1.921,4.251-9.267,36.502-9.341,36.827l-0.03,0.083c-0.01,0.019-0.958,1.895-0.048,3.387c0.816,1.339,2.844,2.018,6.027,2.018
			h50.031c7.706,0,8.953-3.945,8.964-3.985c3.098-9.705,8.048-32.544,8.293-33.677c-0.091-2.617-0.896-4.636-2.393-6.002
			c-2.312-2.11-5.514-1.944-5.543-1.942l-47.612,0.001C284.82,40.635,284.32,40.577,283.572,40.577z"/>
	</g>
	<g>
		<path style="fill:#47484A;" d="M285.362,58.276c5.55-3.195,11.08-6.427,16.597-9.679c4.677-2.757,9.342-5.532,14.007-8.307
			h-10.188c-3.666,2.147-7.327,4.304-10.977,6.479c-5.995,3.571-11.97,7.176-17.93,10.805c-1.796,1.094-3.584,2.202-5.377,3.3
			c-0.5,2.044-0.997,4.104-1.469,6.085C275.158,64.102,280.271,61.207,285.362,58.276z"/>
		<path style="fill:#48494B;" d="M269.502,67.648l0.184-0.771c0.473-1.982,0.969-4.043,1.47-6.087l0.034-0.139l2.368-1.454
			c1.043-0.642,2.086-1.284,3.132-1.921c6.328-3.853,12.194-7.388,17.933-10.807c3.307-1.97,6.899-4.09,10.979-6.48l0.082-0.048
			h11.551l-1.089,0.648c-4.666,2.776-9.331,5.551-14.009,8.308c-6.115,3.604-11.545,6.771-16.6,9.681l-0.174-0.302l0.174,0.302
			c-5.116,2.946-10.278,5.867-15.342,8.685L269.502,67.648z M271.798,61.095c-0.424,1.733-0.845,3.477-1.25,5.173
			c4.838-2.696,9.759-5.484,14.64-8.294l0,0c5.053-2.909,10.481-6.075,16.594-9.678c4.312-2.542,8.615-5.099,12.917-7.659h-8.826
			c-4.045,2.369-7.609,4.473-10.893,6.43c-5.737,3.418-11.601,6.952-17.928,10.804c-1.045,0.636-2.087,1.277-3.129,1.919
			L271.798,61.095z"/>
	</g>
	<g>
		<path style="fill:#47484A;" d="M312.32,78.991c5.806-3.806,11.614-7.611,17.43-11.402c2.616-1.705,5.242-3.394,7.862-5.093
			c1.765-7.523,3.135-13.884,3.135-13.884c-0.033-1.025-0.174-1.92-0.391-2.708c-1.76,1.104-3.521,2.205-5.284,3.304
			c-7.497,4.672-15.016,9.307-22.497,14.005c-7.424,4.662-14.828,9.364-22.094,14.27c-4.382,2.959-8.695,6.017-12.983,9.109h23.462
			C304.728,84.03,308.508,81.49,312.32,78.991z"/>
		<path style="fill:#48494B;" d="M301.068,86.94h-24.65l0.876-0.632c5.18-3.736,9.188-6.547,12.991-9.115
			c7.37-4.976,14.979-9.802,22.104-14.276c4.725-2.968,9.467-5.911,14.208-8.854c2.764-1.715,5.528-3.431,8.289-5.152
			c1.763-1.099,3.524-2.2,5.284-3.303l0.396-0.249l0.125,0.451c0.236,0.856,0.372,1.794,0.404,2.79l0.001,0.043l-0.009,0.042
			c-0.014,0.064-1.392,6.45-3.138,13.891l-0.032,0.136l-3.117,2.017c-1.622,1.048-3.244,2.096-4.862,3.151
			c-5.816,3.791-11.624,7.595-17.43,11.401c-3.428,2.247-7.036,4.662-11.355,7.598L301.068,86.94z M278.579,86.243h22.274
			c4.284-2.911,7.868-5.309,11.276-7.543l0,0c5.807-3.807,11.615-7.611,17.431-11.402c1.619-1.055,3.242-2.104,4.864-3.153
			l2.881-1.864c1.655-7.059,2.971-13.137,3.093-13.7c-0.026-0.75-0.115-1.463-0.264-2.126c-1.625,1.019-3.251,2.035-4.878,3.049
			c-2.762,1.721-5.526,3.437-8.291,5.152c-4.74,2.942-9.48,5.884-14.205,8.851c-7.12,4.47-14.723,9.293-22.084,14.264
			C287.096,80.189,283.334,82.823,278.579,86.243z"/>
	</g>
	<g>
		<path style="fill:#95979A;" d="M183.572,120.122L183.572,120.122c-1.192,0-2.168-0.975-2.168-2.168V103.08
			c0-1.192,0.975-2.168,2.168-2.168l0,0c1.192,0,2.168,0.976,2.168,2.168v14.875C185.74,119.147,184.765,120.122,183.572,120.122z"
			/>
		<path style="fill:#555752;" d="M183.573,120.471c-1.388,0-2.517-1.129-2.517-2.516V103.08c0-1.387,1.129-2.516,2.517-2.516
			c1.387,0,2.516,1.129,2.516,2.516v14.875C186.089,119.342,184.96,120.471,183.573,120.471z M183.573,101.261
			c-1.003,0-1.819,0.816-1.819,1.819v14.875c0,1.003,0.816,1.819,1.819,1.819s1.819-0.816,1.819-1.819V103.08
			C185.391,102.077,184.576,101.261,183.573,101.261z"/>
	</g>
</g>
</svg>
